<?xml version="1.0" standalone="no"?>
<!DOCTYPE svg PUBLIC "-//W3C//DTD SVG 1.1//EN" "http://www.w3.org/Graphics/SVG/1.1/DTD/svg11.dtd" >
<svg xmlns="http://www.w3.org/2000/svg">
<metadata></metadata>
<defs>
<font id="josefin_sans_stdlight" horiz-adv-x="960" >
<font-face units-per-em="2048" ascent="1536" descent="-512" />
<missing-glyph horiz-adv-x="614" />
<glyph horiz-adv-x="2048" />
<glyph horiz-adv-x="2048" />
<glyph unicode="&#xd;" horiz-adv-x="2048" />
<glyph unicode=" "  horiz-adv-x="614" />
<glyph unicode="&#x09;" horiz-adv-x="614" />
<glyph unicode="&#xa0;" horiz-adv-x="614" />
<glyph unicode="!" horiz-adv-x="411" d="M139 100q0 27 20.5 46.5t45.5 19.5q24 0 43.5 -19.5t19.5 -46.5q0 -28 -19.5 -46.5t-43.5 -18.5q-26 0 -46 18.5t-20 46.5zM168 340v1196h72v-1196h-72z" />
<glyph unicode="&#x22;" horiz-adv-x="614" d="M129 967v508h76l-8 -508h-68zM401 967v508h76l-8 -508h-68z" />
<glyph unicode="#" horiz-adv-x="1169" d="M57 440l9 68h231l37 303h-230l7 72h231l53 434h72l-53 -434h305l53 434h72l-53 -434h266l-6 -72h-269l-37 -303h267l-8 -68h-267l-51 -440h-72l52 440h-306l-51 -440h-71l51 440h-232zM369 508h305l37 303h-305z" />
<glyph unicode="$" horiz-adv-x="1161" d="M152 170l53 55q145 -154 313 -168v662l-2 2q-41 13 -72.5 24.5t-79.5 39.5t-80 62t-58 89.5t-29 122.5q-4 66 13.5 129.5t55 118t103 91t149.5 42.5v125h76v-125q145 -10 276 -121l-47 -62q-106 95 -229 109v-590q45 -15 76 -26t76.5 -31t76 -40.5t65 -51t55 -65 t34.5 -81t14 -100.5q0 -168 -113.5 -276t-283.5 -119v-125h-76v125q-203 15 -366 184zM274 1079q0 -58 18 -103.5t53 -77.5t75.5 -54t95.5 -41q0 -2 2 -2v565q-117 -11 -180.5 -93.5t-63.5 -193.5zM594 59q133 13 227 99.5t94 216.5q0 56 -20 103.5t-50 80t-76 60.5 t-85.5 44.5t-89.5 32.5v-637z" />
<glyph unicode="%" horiz-adv-x="1486" d="M215 797q0 95 67.5 161t163.5 66q95 0 163.5 -66.5t68.5 -160.5q0 -96 -68.5 -163t-163.5 -67q-96 0 -163.5 67t-67.5 163zM291 797q0 -70 43 -117t112 -47t111.5 47t42.5 117q0 71 -42 116t-112 45t-112.5 -45t-42.5 -116zM414 0l610 1024h72l-611 -1024h-71zM817 229 q0 95 68 161.5t164 66.5q94 0 162.5 -66.5t68.5 -161.5q0 -96 -68 -162.5t-163 -66.5q-96 0 -164 66.5t-68 162.5zM893 229q0 -70 43.5 -116.5t112.5 -46.5t111 46.5t42 116.5q0 71 -41.5 116.5t-111.5 45.5t-113 -45.5t-43 -116.5z" />
<glyph unicode="&#x26;" horiz-adv-x="1433" d="M215 383q0 147 95 258.5t237 134.5l-146 240q-51 83 -59.5 170t31 167.5t125.5 133.5q55 34 117.5 43.5t120 -4.5t104.5 -34t90 -48l-27 -51q-49 27 -87.5 43.5t-88.5 29t-99.5 5t-95.5 -36.5q-70 -44 -100.5 -107.5t-21 -132.5t52.5 -139l465 -760q12 40 12 88v143 q0 75 12.5 124.5t37.5 74.5t54 34t70 9h96v-74h-90q-65 0 -85.5 -38t-20.5 -167v-106q0 -99 -35 -170l129 -211l-61 -41l-113 180q-55 -74 -138.5 -116.5t-181.5 -42.5q-165 0 -282 118t-117 283zM291 383q0 -141 91 -237.5t232 -96.5q92 0 165.5 42.5t115.5 115.5l-309 506 q-130 -9 -212.5 -102t-82.5 -228z" />
<glyph unicode="'" horiz-adv-x="262" d="M129 967v508h76l-8 -508h-68z" />
<glyph unicode="(" horiz-adv-x="817" d="M279 598q0 288 97.5 535t239.5 397l54 -47q-62 -71 -116.5 -161t-100.5 -201.5t-72.5 -247t-26.5 -275.5t26.5 -275.5t72.5 -247t100.5 -201.5t116.5 -161l-54 -47q-142 150 -239.5 397t-97.5 535z" />
<glyph unicode=")" horiz-adv-x="819" d="M205 -295q133 152 224 383t91 502t-91 502t-224 383l53 47q142 -151 240 -397.5t98 -534.5t-98 -534.5t-240 -397.5z" />
<glyph unicode="*" horiz-adv-x="686" d="M70 1071l196 109l-196 114l39 68l196 -119v232h76l-4 -232l205 113l32 -60l-202 -116l200 -119l-34 -60l-203 115l-2 -227h-68v227l-196 -112z" />
<glyph unicode="+" horiz-adv-x="1112" d="M176 440v68h334v334h68v-334h335v-68h-335v-336h-68v336h-334z" />
<glyph unicode="," horiz-adv-x="409" d="M47 -246l158 422h82l-176 -422h-64z" />
<glyph unicode="-" horiz-adv-x="614" d="M109 356v68h376v-68h-376z" />
<glyph unicode="." horiz-adv-x="333" d="M109 63q0 27 20 46.5t45 19.5q24 0 44 -19.5t20 -46.5q0 -28 -19.5 -46.5t-44.5 -18.5q-26 0 -45.5 18.5t-19.5 46.5z" />
<glyph unicode="/" horiz-adv-x="679" d="M35 -39l569 1546h72l-570 -1546h-71z" />
<glyph unicode="0" horiz-adv-x="1261" d="M76 670q1 153 44.5 282t118 215.5t175 134t215.5 46.5q235 -2 390.5 -190.5t154.5 -495.5q-1 -150 -48.5 -280t-125 -216t-176.5 -134.5t-203 -47.5q-105 1 -203.5 50.5t-174.5 137t-122 218t-45 280.5zM152 668q-1 -126 36.5 -240.5t100.5 -196.5t150 -130.5t182 -49.5 q126 -1 235.5 80t175 223t66.5 310q1 75 -13.5 155t-50.5 163t-88 148.5t-134.5 107t-182.5 42.5t-183 -40.5t-136 -106t-89.5 -148t-52 -163t-16.5 -154.5z" />
<glyph unicode="1" horiz-adv-x="518" d="M70 1118v74l268 156v-1348h-76v1229z" />
<glyph unicode="2" horiz-adv-x="1021" d="M100 956q0 171 99.5 281.5t275.5 110.5q163 0 266 -114.5t103 -287.5q0 -62 -17 -127.5t-41.5 -122t-70.5 -126.5t-83 -119.5t-102 -123t-105.5 -117t-113.5 -119.5q-15 -15 -22 -23h647v-68h-827q91 91 144.5 145.5t132.5 138.5t126 141t102 131t84 131t49.5 119 t20.5 116q0 79 -19 142.5t-49.5 103t-70 65.5t-78 36.5t-76.5 10.5q-69 0 -123 -22t-86 -56t-53.5 -79t-29 -86t-7.5 -81q0 -130 80 -213l-53 -49q-103 108 -103 262z" />
<glyph unicode="3" horiz-adv-x="1124" d="M211 104l51 56q106 -109 262 -109q160 0 262.5 111.5t102.5 275.5q0 166 -107 270.5t-258 104.5q-73 0 -147 -27l24 31l347 447h-467v67h591l-348 -450q82 0 160.5 -31t141 -86.5t101 -140.5t38.5 -185q0 -103 -37.5 -190.5t-100 -144t-141 -88t-162.5 -31.5 q-87 0 -169 31t-144 89z" />
<glyph unicode="4" horiz-adv-x="1042" d="M76 375l749 973v-906h199v-67h-199v-375h-75v375h-674zM219 442h531v693z" />
<glyph unicode="5" horiz-adv-x="1112" d="M211 104l51 56q106 -109 262 -109q160 0 262.5 111.5t102.5 275.5q0 166 -107 270.5t-258 104.5q-133 0 -237 -78v596h614v-67h-539v-412q72 29 162 29q82 0 160.5 -31t141 -86.5t101 -140.5t38.5 -185q0 -103 -37.5 -190.5t-100 -144t-141 -88t-162.5 -31.5 q-87 0 -169 31t-144 89z" />
<glyph unicode="6" horiz-adv-x="1064" d="M102 403q0 82 22.5 163t57 148.5t91.5 139.5t109.5 126t129 118.5t132.5 106.5t136 100l43 -56q-104 -69 -192.5 -139t-143.5 -121.5t-103.5 -107t-71 -85.5t-46.5 -67q118 90 256 90q174 0 299 -121t125 -295q0 -173 -125 -296t-299 -123q-173 0 -296.5 123t-123.5 296z M178 403q0 -144 99.5 -248t240.5 -104q144 0 248 104.5t104 247.5q0 144 -103.5 246.5t-248.5 102.5q-142 0 -241 -102t-99 -247z" />
<glyph unicode="7" d="M29 1264v67h825l-598 -1331h-76l572 1264h-723z" />
<glyph unicode="8" horiz-adv-x="1044" d="M102 403q0 132 74.5 237.5t194.5 150.5q-69 39 -110.5 107t-41.5 149q0 124 88 212.5t211 88.5q124 0 212.5 -88t88.5 -213q0 -81 -40.5 -148t-108.5 -106q122 -43 199 -150t77 -240q0 -173 -125 -296t-299 -123q-173 0 -296.5 123t-123.5 296zM178 403q0 -144 99.5 -248 t240.5 -104q144 0 248 104.5t104 247.5q0 144 -103.5 246.5t-248.5 102.5q-142 0 -241 -102t-99 -247zM295 1042q0 -95 65.5 -159t161.5 -64q95 0 158 64t63 159q0 97 -63.5 167.5t-157.5 70.5t-160.5 -71t-66.5 -167z" />
<glyph unicode="9" horiz-adv-x="1075" d="M102 885q0 173 125 296.5t299 123.5q173 0 296.5 -123.5t123.5 -296.5q0 -82 -22.5 -163t-56.5 -148.5t-91.5 -139.5t-110 -125.5t-129.5 -118t-132 -106.5t-136 -100l-43 55q104 69 192.5 139t143.5 121.5t103.5 107t71 85.5t46.5 67q-118 -90 -256 -90q-174 0 -299 121 t-125 295zM178 885q0 -144 103.5 -246t248.5 -102q142 0 241 101.5t99 246.5q0 144 -99.5 248t-240.5 104q-144 0 -248 -104.5t-104 -247.5z" />
<glyph unicode=":" horiz-adv-x="358" d="M109 63q0 27 20 46.5t45 19.5q24 0 44 -19.5t20 -46.5q0 -28 -19.5 -46.5t-44.5 -18.5q-26 0 -45.5 18.5t-19.5 46.5zM109 578q0 27 20 46t45 19q24 0 44 -19t20 -46q0 -28 -20 -47t-44 -19q-26 0 -45.5 19t-19.5 47z" />
<glyph unicode=";" horiz-adv-x="411" d="M16 -246l158 422h82l-176 -422h-64zM172 578q0 27 20 46t46 19q24 0 43.5 -19t19.5 -46q0 -28 -19.5 -47t-43.5 -19q-26 0 -46 19t-20 47z" />
<glyph unicode="&#x3c;" horiz-adv-x="1392" d="M238 487l895 517v-74l-766 -443l766 -442v-74z" />
<glyph unicode="=" horiz-adv-x="1449" d="M205 287v65h1036v-65h-1036zM205 684v66h1036v-66h-1036z" />
<glyph unicode="&#x3e;" horiz-adv-x="1331" d="M238 -29v74l766 442l-766 443v74l895 -517z" />
<glyph unicode="?" horiz-adv-x="925" d="M63 1227q40 120 144.5 196t234.5 76q168 0 285 -117t117 -282q0 -205 -201 -355q-15 -11 -47.5 -30t-52.5 -33.5t-43 -39.5t-34 -61.5t-11 -84.5v-160h-72v199q0 50 13.5 87.5t43 66.5t57 48t75 48.5t77.5 52.5q119 107 119 262q0 144 -91 238t-235 94q-112 0 -194 -61 t-113 -163zM350 94q0 27 20.5 46.5t45.5 19.5q24 0 43.5 -19.5t19.5 -46.5q0 -28 -19.5 -46.5t-43.5 -18.5q-26 0 -46 18.5t-20 46.5z" />
<glyph unicode="@" horiz-adv-x="2027" d="M182 387q0 167 65 318.5t174.5 261t261 174.5t318.5 65t319 -65t261.5 -174.5t174.5 -261.5t65 -320q-4 -104 -30 -181t-68.5 -120t-92.5 -63.5t-108 -20.5h-97q-56 0 -76 28t-22 95l6 92q-43 -104 -133 -168.5t-207 -64.5q-165 0 -282 118t-117 283t117 282t282 117 q118 0 204.5 -61t129.5 -164l10 211h66v-637q0 -36 8 -48.5t39 -12.5h72q93 0 154 74.5t67 240.5q0 152 -58.5 289.5t-158 237t-237 158t-288.5 58.5t-288 -58.5t-235.5 -158t-157 -237t-58.5 -289.5q0 -151 58.5 -288t157 -235.5t235.5 -157t288 -58.5q235 0 429 135 l49 -60q-215 -153 -478 -153q-167 0 -318.5 65t-261 174.5t-174.5 261t-65 318.5zM670 383q0 -141 91 -237.5t232 -96.5q143 0 234.5 96t91.5 238q0 144 -91 238t-235 94q-142 0 -232.5 -94.5t-90.5 -237.5z" />
<glyph unicode="A" horiz-adv-x="1515" d="M125 0l635 1499l635 -1499h-80l-260 614h-590l-260 -614h-80zM494 684h530l-244 578l-20 65l-21 -65z" />
<glyph unicode="B" horiz-adv-x="1095" d="M164 0v1434h309q198 0 310 -88t112 -271q0 -130 -65.5 -225t-192.5 -129q133 -28 222 -119.5t89 -232.5q0 -88 -36.5 -160t-98.5 -116.5t-139.5 -68.5t-163.5 -24h-346zM240 68h270q156 0 259 78.5t103 222.5q0 81 -33 143.5t-89.5 100t-126.5 56.5t-148 19h-235v-620z M240 756h264q143 0 229 88.5t86 230.5q0 150 -85 220.5t-234 70.5h-260v-610z" />
<glyph unicode="C" horiz-adv-x="1372" d="M127 715q0 200 98 369t266.5 267.5t366.5 98.5q199 0 369 -98l-53 -60q-151 82 -316 82q-132 0 -253.5 -52.5t-209.5 -141.5t-140 -210.5t-52 -254.5q0 -177 88 -328t239 -239.5t328 -88.5q166 0 313 80l58 -55q-173 -100 -371 -100q-148 0 -283.5 58t-233.5 156 t-156 233.5t-58 283.5z" />
<glyph unicode="D" horiz-adv-x="1335" d="M168 0v1434h285q149 0 283 -51t234 -142.5t159 -227.5t59 -296q0 -101 -26.5 -199t-88.5 -193t-152.5 -166.5t-230 -115t-309.5 -43.5h-213zM244 68h172q197 0 355 79t249.5 228t91.5 342t-91.5 342t-249.5 228t-355 79h-172v-1298z" />
<glyph unicode="E" horiz-adv-x="1230" d="M186 0v1434h838v-68h-762v-610h682v-68h-682v-620h791v-68h-867z" />
<glyph unicode="F" horiz-adv-x="1202" d="M186 0v1434h838v-68h-762v-610h682v-68h-682v-688h-76z" />
<glyph unicode="G" horiz-adv-x="1417" d="M127 715q0 200 98 369t266.5 267.5t366.5 98.5q217 0 399 -117l-55 -57q-161 98 -344 98q-132 0 -253.5 -52.5t-209.5 -141.5t-140 -210.5t-52 -254.5q0 -177 88 -328t239 -239.5t328 -88.5q158 0 303 74v350q0 36 -8 49t-39 13h-260v69h283q56 0 77 -28t21 -94v-402 q-165 -106 -377 -106q-148 0 -283.5 58t-233.5 156t-156 233.5t-58 283.5z" />
<glyph unicode="H" horiz-adv-x="1433" d="M205 0v1434h76v-678h872v678h76v-1434h-76v688h-872v-688h-76z" />
<glyph unicode="I" horiz-adv-x="483" d="M203 0v1434h76v-1434h-76z" />
<glyph unicode="J" horiz-adv-x="614" d="M37 -137q139 0 228.5 92t92.5 231v1248h76v-1248q-2 -163 -116 -276t-281 -113v66z" />
<glyph unicode="K" horiz-adv-x="1228" d="M150 0v1434h75v-652l-6 -65l39 47l703 670h88l-607 -578l678 -856h-88l-639 809l-168 -160v-649h-75z" />
<glyph unicode="L" horiz-adv-x="1214" d="M186 0v1434h76v-1366h791v-68h-867z" />
<glyph unicode="M" horiz-adv-x="1918" d="M205 0v1499l749 -973l750 973v-1499h-76v1231l6 65l-37 -55l-643 -840l-643 840l-37 55l7 -65v-1231h-76z" />
<glyph unicode="N" horiz-adv-x="1665" d="M205 0v1499l1143 -1325l38 -53l-6 65v1248h76v-1500l-1143 1326l-39 53l7 -66v-1247h-76z" />
<glyph unicode="O" horiz-adv-x="1720" d="M127 715q0 200 98 369t266.5 267.5t366.5 98.5q200 0 369 -98.5t267.5 -267.5t98.5 -369q0 -198 -98.5 -366.5t-267.5 -266.5t-369 -98q-148 0 -283.5 58t-233.5 156t-156 233.5t-58 283.5zM203 715q0 -177 88 -328t239 -239.5t328 -88.5q133 0 255 52.5t210.5 140.5 t141.5 209.5t53 253.5t-53 254t-141.5 210.5t-210.5 141.5t-255 53q-132 0 -253.5 -52.5t-209.5 -141.5t-140 -210.5t-52 -254.5z" />
<glyph unicode="P" horiz-adv-x="929" d="M205 0v1434h295q51 0 106 -12.5t112 -41.5t102 -70.5t73.5 -105t28.5 -139.5q0 -177 -111 -281t-311 -104h-219v-680h-76zM281 748h208q81 0 144.5 20t102.5 52t64.5 74.5t35.5 84.5t10 86q0 122 -102.5 211.5t-251.5 89.5h-211v-618z" />
<glyph unicode="Q" horiz-adv-x="1724" d="M127 715q0 200 98 369t266.5 267.5t366.5 98.5q200 0 369 -98.5t267.5 -267.5t98.5 -369q0 -204 -105 -375.5t-278 -265.5h428v-76h-634q-82 -14 -146 -14q-148 0 -283.5 58t-233.5 156t-156 233.5t-58 283.5zM203 715q0 -177 88 -328t239 -239.5t328 -88.5 q133 0 255 52.5t210.5 140.5t141.5 209.5t53 253.5t-53 254t-141.5 210.5t-210.5 141.5t-255 53q-132 0 -253.5 -52.5t-209.5 -141.5t-140 -210.5t-52 -254.5z" />
<glyph unicode="R" horiz-adv-x="1214" d="M205 0v1434h295q51 0 106 -12.5t112 -41.5t102 -70.5t73.5 -105t28.5 -139.5q0 -149 -78 -246.5t-223 -128.5l321 -690h-78l-317 680h-266v-680h-76zM281 748h208q81 0 144.5 20t102.5 52t64.5 74.5t35.5 84.5t10 86q0 122 -102.5 211.5t-251.5 89.5h-211v-618z" />
<glyph unicode="S" horiz-adv-x="1161" d="M152 170l53 55q159 -168 348 -168q94 0 176 38t134 112t52 168q0 47 -14.5 87.5t-34 70t-56 57t-63.5 43.5t-75 35t-72 27t-71 22l-4.5 1.5t-4 1t-4.5 1.5q-41 13 -72.5 24.5t-79.5 39.5t-80 62t-58 89.5t-29 122.5q-1 12 -1 24q0 58 17 113q20 66 61.5 122t115 90 t167.5 34q171 0 313 -123l-47 -62q-116 111 -270 111q-89 0 -154 -41.5t-95 -106t-30 -141.5q0 -58 18 -103.5t53 -77.5t75.5 -54t95.5 -41q18 -6 60.5 -19.5t69 -23t68.5 -26t70.5 -33t64 -40t58 -51t43.5 -61.5t31 -76.5t10 -91.5q0 -177 -124.5 -287t-307.5 -110 q-228 0 -407 186z" />
<glyph unicode="T" horiz-adv-x="1132" d="M0 1366v68h1133v-68h-529v-1366h-76v1366h-528z" />
<glyph unicode="U" horiz-adv-x="1335" d="M201 463v971h75v-965q0 -197 109 -307.5t285 -110.5q175 0 285 111t110 307v965h76v-971q0 -227 -132 -353t-339 -126q-208 0 -338.5 125.5t-130.5 353.5z" />
<glyph unicode="V" horiz-adv-x="1478" d="M111 1434h79l537 -1266l18 -62l19 62l536 1266h80l-635 -1500z" />
<glyph unicode="W" horiz-adv-x="2269" d="M111 1434h79l537 -1266l18 -62l19 62l321 760l-213 506h80l537 -1266l18 -62l19 62l536 1266h80l-635 -1500l-362 854l-19 62l-18 -62l-363 -854z" />
<glyph unicode="X" horiz-adv-x="1433" d="M190 0l478 731l-457 703h84l395 -609l27 -55l26 55l390 596h84l-457 -702l469 -719h-86l-406 625l-28 57l-27 -57l-406 -625h-86z" />
<glyph unicode="Y" horiz-adv-x="1306" d="M84 1434h76l467 -781l24 -55h2l23 55l465 781h76l-527 -895l-2 -539h-74v539z" />
<glyph unicode="Z" horiz-adv-x="1433" d="M166 0v68l989 1298h-866q-67 0 -95 18t-28 74v78h70v-55q0 -31 12.5 -39t48.5 -8h954v-68l-989 -1298h1049v-68h-1145z" />
<glyph unicode="[" horiz-adv-x="692" d="M170 -305v1833h344v-68h-268v-1698h268v-67h-344z" />
<glyph unicode="\" horiz-adv-x="677" d="M0 1507h72l569 -1546h-72z" />
<glyph unicode="]" horiz-adv-x="700" d="M170 -238h268v1698h-268v68h344v-1833h-344v67z" />
<glyph unicode="^" horiz-adv-x="962" d="M229 981l246 371l246 -371h-68l-178 250l-178 -250h-68z" />
<glyph unicode="_" horiz-adv-x="1228" d="M205 0v68h819v-68h-819z" />
<glyph unicode="`" horiz-adv-x="409" d="M-61 1253h75l185 -272h-68z" />
<glyph unicode="a" horiz-adv-x="1128" d="M100 383q0 108 53.5 200t145.5 145.5t201 53.5q118 0 204.5 -61t129.5 -164l10 211h65v-768h-75v123l6 92q-43 -104 -133 -168.5t-207 -64.5q-165 0 -282.5 118t-117.5 283zM176 383q0 -141 91.5 -237.5t232.5 -96.5q143 0 234 96t91 238q0 144 -90.5 238t-234.5 94 q-142 0 -233 -94.5t-91 -237.5z" />
<glyph unicode="b" horiz-adv-x="1150" d="M205 0v1536h76v-979q43 103 129 164t204 61q109 0 201 -53.5t145.5 -145.5t53.5 -200q0 -165 -117.5 -283t-282.5 -118q-117 0 -207 64.5t-133 168.5l7 -92v-123h-76zM289 383q0 -142 91 -238t234 -96q141 0 232.5 96.5t91.5 237.5q0 143 -91 237.5t-233 94.5 q-144 0 -234.5 -94t-90.5 -238z" />
<glyph unicode="c" horiz-adv-x="788" d="M57 383q0 165 117.5 282t282.5 117q153 0 266 -102l-41 -51q-92 86 -225 86q-142 0 -233 -94.5t-91 -237.5t91 -237.5t233 -94.5q133 0 225 86l41 -51q-113 -102 -266 -102q-165 0 -282.5 117t-117.5 282z" />
<glyph unicode="d" horiz-adv-x="1071" d="M100 383q0 108 53.5 200t145.5 145.5t201 53.5q118 0 204.5 -61t129.5 -164v979h75v-1536h-75v123l6 92q-43 -104 -133 -168.5t-207 -64.5q-165 0 -282.5 118t-117.5 283zM176 383q0 -141 91.5 -237.5t232.5 -96.5q143 0 234 96t91 238q0 144 -90.5 238t-234.5 94 q-142 0 -233 -94.5t-91 -237.5z" />
<glyph unicode="e" horiz-adv-x="923" d="M80 381q0 165 117 282t282 117q131 0 223 -75.5t132 -200.5l-656 -254q36 -93 116 -148t185 -55q131 0 221 84l52 -41q-113 -110 -273 -110q-165 0 -282 118t-117 283zM156 381q0 -24 4 -64l585 228q-84 168 -266 168q-142 0 -232.5 -94.5t-90.5 -237.5z" />
<glyph unicode="f" horiz-adv-x="575" d="M45 700v68h133v391q2 163 116 276t281 113v-65q-139 0 -228.5 -92.5t-92.5 -231.5v-391h238v-68h-238v-700h-76v700h-133z" />
<glyph unicode="g" horiz-adv-x="1060" d="M100 383q0 108 53.5 200t145.5 145.5t201 53.5q118 0 204.5 -61t129.5 -164l10 211h65v-893q-2 -163 -116 -276t-281 -113q-87 0 -169.5 33t-141.5 90l53 43q48 -46 117.5 -73.5t140.5 -27.5q140 0 231 93t91 231v248l6 92q-43 -104 -133 -168.5t-207 -64.5 q-165 0 -282.5 118t-117.5 283zM176 383q0 -141 91.5 -237.5t232.5 -96.5q143 0 234 96t91 238q0 144 -90.5 238t-234.5 94q-142 0 -233 -94.5t-91 -237.5z" />
<glyph unicode="h" horiz-adv-x="1003" d="M205 0v1536h76v-975q44 100 129.5 159t199.5 62q120 0 192 -63t75 -166v-553h-76v553q-3 69 -50.5 113.5t-138.5 48.5q-135 0 -233 -82.5t-98 -204.5v-428h-76z" />
<glyph unicode="i" horiz-adv-x="368" d="M131 1067q0 27 20.5 46.5t45.5 19.5q24 0 43.5 -19.5t19.5 -46.5q0 -28 -19.5 -47t-43.5 -19q-26 0 -46 19t-20 47zM150 0v768h75v-768h-75z" />
<glyph unicode="j" horiz-adv-x="460" d="M94 -465q106 95 109 246v987h76v-987q-3 -178 -134 -293zM180 1067q0 27 20.5 46.5t45.5 19.5q24 0 43.5 -19.5t19.5 -46.5q0 -28 -19.5 -47t-43.5 -19q-26 0 -46 19t-20 47z" />
<glyph unicode="k" horiz-adv-x="919" d="M150 0v1536h73v-1163l459 426l45 -49l-293 -277l342 -473h-86l-309 422l-156 -146v-276h-75z" />
<glyph unicode="l" horiz-adv-x="378" d="M154 0v1536h73v-1536h-73z" />
<glyph unicode="m" horiz-adv-x="1630" d="M205 0v766h67l9 -205q44 100 129.5 159t199.5 62q120 0 192 -63t75 -166q43 105 129 165.5t200 63.5q120 0 192 -63t75 -166v-553h-76v553q-3 69 -50.5 113.5t-138.5 48.5q-133 0 -232 -79t-99 -196v-440h-76v553q-3 69 -50.5 113.5t-138.5 48.5q-135 0 -233 -82.5 t-98 -204.5v-428h-76z" />
<glyph unicode="n" horiz-adv-x="1013" d="M205 0v766h67l9 -205q44 100 129.5 159t199.5 62q120 0 192 -63t75 -166v-553h-76v553q-3 69 -50.5 113.5t-138.5 48.5q-135 0 -233 -82.5t-98 -204.5v-428h-76z" />
<glyph unicode="o" d="M74 383q0 165 117 282t282 117q168 0 284.5 -117t116.5 -282t-116.5 -283t-284.5 -118q-165 0 -282 118t-117 283zM150 383q0 -141 91 -237.5t232 -96.5q143 0 234.5 96t91.5 238q0 144 -91 238t-235 94q-142 0 -232.5 -94.5t-90.5 -237.5z" />
<glyph unicode="p" horiz-adv-x="1075" d="M137 -512v1280h68l8 -209q43 103 129.5 164t204.5 61q165 0 282 -117t117 -282t-117 -282t-282 -117q-118 0 -204.5 61t-129.5 164v-723h-76zM221 385q0 -142 91.5 -238t234.5 -96q141 0 232 96.5t91 237.5q0 143 -90.5 237.5t-232.5 94.5q-144 0 -235 -94t-91 -238z" />
<glyph unicode="q" horiz-adv-x="1048" d="M109 383q0 165 117 282t282 117q118 0 204.5 -61t129.5 -164l10 211h74v-1280h-78v727q-43 -104 -133 -168.5t-207 -64.5q-165 0 -282 118t-117 283zM184 383q0 -141 91.5 -237.5t232.5 -96.5q143 0 234.5 96t91.5 238q0 144 -91 238t-235 94q-142 0 -233 -94.5 t-91 -237.5z" />
<glyph unicode="r" horiz-adv-x="677" d="M205 0v766h67l9 -205q44 99 127.5 158t193.5 63l-2 -67q-127 -4 -215.5 -84.5t-103.5 -202.5v-428h-76z" />
<glyph unicode="s" horiz-adv-x="817" d="M170 80l45 55q28 -39 89 -63q54 -22 98 -21h10q57 4 108 43t51 113q0 31 -11.5 55.5t-25.5 40t-42.5 30.5t-47 22t-53.5 18l-28.5 9.5t-33.5 11.5t-31 13t-32.5 18t-26 23t-23.5 31t-13 39t-6 49q0 99 65 155t148 56q51 0 109 -21.5t97 -66.5l-38 -53q-20 25 -70 49.5 t-98 24.5q-54 0 -97 -33t-43 -100q0 -55 29.5 -82.5t91.5 -49.5q43 -14 70.5 -25t66.5 -32t62 -43.5t40 -57.5t17 -77q0 -39 -14 -78t-42 -73t-76 -55t-109 -21q-66 0 -132 23.5t-104 72.5z" />
<glyph unicode="t" horiz-adv-x="577" d="M86 700v68h133v500h76v-500h235v-68h-235v-700h-76v700h-133z" />
<glyph unicode="u" horiz-adv-x="1083" d="M205 229v539h76v-539q3 -69 50 -113t138 -48q135 0 233.5 82t98.5 204v428h76v-782h-76v123l6 92q-43 -98 -132 -155t-204 -60q-120 0 -191.5 63t-74.5 166z" />
<glyph unicode="v" horiz-adv-x="1024" d="M111 768h79l332 -662l332 662h80l-412 -815z" />
<glyph unicode="w" horiz-adv-x="1581" d="M111 768h79l332 -662l240 478l-92 184h80l331 -662l332 662h80l-412 -815l-280 553l-279 -553z" />
<glyph unicode="x" horiz-adv-x="819" d="M86 0l276 383l-276 385h86l242 -334l239 332h84l-278 -385l276 -381h-84l-239 332l-240 -332h-86z" />
<glyph unicode="y" horiz-adv-x="999" d="M104 768h80l332 -662l332 662h80l-645 -1280h-78l270 543z" />
<glyph unicode="z" horiz-adv-x="923" d="M86 0v68l637 632h-514q-67 0 -95 18.5t-28 74.5v77h70v-55q0 -31 12.5 -39t48.5 -8h602v-68l-637 -632h637v-68h-733z" />
<glyph unicode="{" horiz-adv-x="573" d="M61 578v67q47 2 81 29t50.5 71t23.5 87t7 90v364q0 75 13 124.5t38.5 74.5t54.5 34t70 9h97v-68h-90q-64 0 -85.5 -40.5t-21.5 -170.5v-362q0 -191 -133 -277q133 -86 133 -274v-363q0 -130 21.5 -170.5t85.5 -40.5h90v-67h-97q-41 0 -70 9t-54.5 34t-38.5 74.5 t-13 124.5v364q0 47 -7 90t-23.5 87t-50.5 71t-81 29z" />
<glyph unicode="|" horiz-adv-x="466" d="M186 -475v1909h76v-1909h-76z" />
<glyph unicode="}" horiz-adv-x="567" d="M61 -238h91q64 0 85 40.5t21 170.5v363q0 188 133 274q-133 86 -133 277v362q0 130 -21 170.5t-85 40.5h-91v68h97q41 0 70 -9t54.5 -34t38.5 -74.5t13 -124.5v-364q0 -47 7 -90t23.5 -87t50.5 -71t81 -29v-67q-47 -2 -81 -29t-50.5 -71t-23.5 -87t-7 -90v-364 q0 -75 -13 -124.5t-38.5 -74.5t-54.5 -34t-70 -9h-97v67z" />
<glyph unicode="~" horiz-adv-x="1001" d="M266 956q4 73 45 110.5t103 37.5q22 0 43.5 -9.5t36.5 -21t41 -35.5q36 -34 49 -42.5t34 -8.5q79 0 89 96l57 -6q-4 -73 -45 -110t-103 -37q-34 0 -59 14.5t-59 48.5q-36 35 -50.5 44.5t-35.5 9.5q-78 0 -88 -97z" />
<glyph unicode="&#xa1;" horiz-adv-x="409" d="M139 1006q0 28 20 46.5t46 18.5q24 0 43.5 -18.5t19.5 -46.5q0 -27 -19.5 -46.5t-43.5 -19.5q-25 0 -45.5 19.5t-20.5 46.5zM168 -430v1196h72v-1196h-72z" />
<glyph unicode="&#xa2;" horiz-adv-x="788" d="M57 383q0 149 96.5 260t241.5 133v121h76v-115q141 -6 252 -102l-41 -51q-90 80 -211 86v-664q121 3 211 86l41 -51q-107 -96 -252 -102v-121h-76v127q-145 22 -241.5 133t-96.5 260zM133 383q0 -128 72 -218t190 -110v654q-118 -20 -190 -110t-72 -216z" />
<glyph unicode="&#xa3;" horiz-adv-x="1175" d="M59 0v74h91q65 0 85.5 38t20.5 167v335h-133v68h133v342q0 138 91.5 206t254.5 68q129 0 205 -48.5t119 -137.5l-52 -31q-46 85 -103 119.5t-169 34.5q-135 0 -203.5 -47.5t-68.5 -163.5v-342h239v-68h-239v-372q0 -108 -29 -168h442q130 0 170.5 21t40.5 85v90h68v-96 q0 -41 -9 -70t-34 -54t-74.5 -37.5t-124.5 -12.5h-721z" />
<glyph unicode="&#xa4;" horiz-adv-x="1024" d="M217 500l68 67q-60 76 -60 172t60 172l-68 70l47 47l68 -70q78 62 174 62q95 0 170 -59l67 67l48 -47l-66 -66q61 -77 61 -176q0 -97 -61 -174l68 -65l-48 -47l-67 65q-75 -59 -172 -59q-98 0 -176 59l-66 -65zM307 737q0 -83 59 -141.5t142 -58.5q85 0 144 58.5 t59 141.5q0 85 -59 144t-144 59q-83 0 -142 -59t-59 -144z" />
<glyph unicode="&#xa5;" horiz-adv-x="1306" d="M84 1434h76l491 -820h2l488 820h76l-488 -830h260v-65h-299l-2 -269h301v-65h-301v-205h-76v205h-305v65h305l2 269h-307v65h268z" />
<glyph unicode="&#xa6;" horiz-adv-x="440" d="M186 240h76v-717h-76v717zM186 717v717h76v-717h-76z" />
<glyph unicode="&#xa7;" horiz-adv-x="1024" d="M296 798q26 96 112 146q76 48 174 27l-101 172q-37 65 -51 114.5t-4.5 83.5t30 56.5t56.5 42.5l84 49l37 -66l-80 -45q-55 -28 -54 -72t66 -157l170 -293q50 -85 24 -181t-112 -145q-81 -49 -174 -26l102 -176q37 -65 51 -114.5t5 -83.5t-29.5 -56.5t-56.5 -42.5l-84 -49 l-37 65l80 45q55 28 54 72.5t-66 157.5q-93 159 -155 263q-17 28 -18 31q-49 86 -23 182zM367 781.5q-15 -70.5 20 -128.5q34 -60 99.5 -79t125.5 16q59 34 76 100.5t-18 126.5q-34 60 -101.5 81.5t-128.5 -11.5q-58 -35 -73 -105.5z" />
<glyph unicode="&#xa8;" horiz-adv-x="757" d="M143 1067q0 27 20.5 46.5t45.5 19.5q24 0 43.5 -19.5t19.5 -46.5q0 -28 -19.5 -47t-43.5 -19q-26 0 -46 19t-20 47zM481 1067q0 27 20.5 46.5t45.5 19.5q24 0 43.5 -19.5t19.5 -46.5q0 -28 -19.5 -47t-43.5 -19q-26 0 -46 19t-20 47z" />
<glyph unicode="&#xa9;" horiz-adv-x="1624" d="M295 758q0 148 71 269t191 188t262 67t262 -67t191 -188t71 -269q0 -146 -71 -266.5t-191 -188t-262 -67.5t-262 67.5t-191 188t-71 266.5zM362 758q0 -197 131.5 -328t325.5 -131t325.5 131t131.5 328q0 198 -131 329.5t-326 131.5t-326 -131.5t-131 -329.5zM500 766 q0 137 98.5 235.5t237.5 98.5q125 0 221 -86l-41 -47q-82 65 -180 65q-119 0 -192 -74.5t-73 -191.5q0 -118 73 -191t192 -73q110 0 180 67l41 -49q-94 -84 -221 -84q-139 0 -237.5 96.5t-98.5 233.5z" />
<glyph unicode="&#xaa;" horiz-adv-x="1198" d="M190 903q0 119 84.5 204t204.5 85q85 0 147.5 -44.5t94.5 -119.5l6 152h47v-553h-53v88l4 67q-32 -75 -96.5 -121.5t-149.5 -46.5q-120 0 -204.5 85t-84.5 204zM246 903q0 -102 65.5 -171.5t167.5 -69.5q103 0 169.5 69.5t66.5 171.5q0 104 -66 172t-170 68 q-102 0 -167.5 -68.5t-65.5 -171.5z" />
<glyph unicode="&#xab;" horiz-adv-x="1230" d="M240 489l350 330v-74l-252 -256l252 -258v-73zM590 489l350 330v-74l-252 -256l252 -258v-73z" />
<glyph unicode="&#xac;" horiz-adv-x="1144" d="M205 440v68h737v-205h-68v137h-669z" />
<glyph unicode="&#xad;" horiz-adv-x="614" d="M109 356v68h376v-68h-376z" />
<glyph unicode="&#xae;" horiz-adv-x="1640" d="M295 762q0 148 71 269t191 188t262 67t262 -67t191 -188t71 -269q0 -146 -71 -266.5t-191 -188t-262 -67.5t-262 67.5t-191 188t-71 266.5zM362 762q0 -197 131.5 -328t325.5 -131t325.5 131t131.5 328q0 198 -131 329.5t-326 131.5t-326 -131.5t-131 -329.5zM680 471 v621h131q26 0 58.5 -12t63.5 -33t52 -56t21 -76q0 -63 -40.5 -117t-101.5 -67l109 -201q8 -14 28 -14h21v-45h-51q-26 0 -33 12l-127 244h-78v-256h-53zM733 782h72q79 0 114 40t35 93q0 49 -43 87t-104 38h-74v-258z" />
<glyph unicode="&#xaf;" horiz-adv-x="817" d="M174 989v68h471v-68h-471z" />
<glyph unicode="&#xb0;" horiz-adv-x="577" d="M117 1147q0 69 48.5 116.5t117.5 47.5q68 0 115.5 -47.5t47.5 -116.5t-47.5 -116.5t-115.5 -47.5q-69 0 -117.5 47.5t-48.5 116.5zM172 1147q0 -50 30.5 -82.5t80.5 -32.5t79 32t29 83q0 52 -29 82.5t-79 30.5q-51 0 -81 -31t-30 -82z" />
<glyph unicode="&#xb1;" horiz-adv-x="1073" d="M176 258v68h737v-68h-737zM176 766v68h334v333h68v-333h335v-68h-335v-336h-68v336h-334z" />
<glyph unicode="&#xb2;" horiz-adv-x="815" d="M197 768q80 80 124 127t98.5 113t79.5 119t25 98q0 92 -41.5 131t-97.5 39q-42 0 -71.5 -15t-43 -40t-19 -48.5t-5.5 -48.5q0 -65 37 -102l-31 -29q-51 51 -51 131q0 83 49 138t135 55q82 0 133 -57t51 -144q0 -54 -20.5 -108t-65.5 -113t-80 -98.5t-100 -106.5h311v-41 h-417z" />
<glyph unicode="&#xb3;" horiz-adv-x="858" d="M209 838l29 30q58 -61 147 -61q90 0 147.5 62.5t57.5 154.5q0 94 -60 152.5t-145 58.5q-38 0 -84 -14l14 16l195 250h-262v39h332l-195 -254q97 0 172.5 -68.5t75.5 -179.5q0 -115 -74.5 -184.5t-173.5 -69.5q-105 0 -176 68z" />
<glyph unicode="&#xb4;" horiz-adv-x="464" d="M205 981l184 272h76l-193 -272h-67z" />
<glyph unicode="&#xb6;" horiz-adv-x="1021" d="M78 1200q0 140 97.5 238t236.5 98h407v-1536h-74v1468h-260v-1468h-73v866q-140 0 -237 97t-97 237z" />
<glyph unicode="&#xb7;" horiz-adv-x="344" d="M109 578q0 27 20 46t45 19q24 0 44 -19t20 -46q0 -28 -20 -47t-44 -19q-26 0 -45.5 19t-19.5 47z" />
<glyph unicode="&#xb8;" horiz-adv-x="925" d="M217 -346l70 16q12 -44 48.5 -71t86.5 -27q63 0 103 42t40 105q0 67 -51 115q-15 11 -42.5 28.5t-40.5 27t-24.5 30t-11.5 47.5v33h76v-14q0 -27 9.5 -46t19.5 -26.5t29 -18t26 -16.5q74 -55 74 -160q0 -89 -54.5 -151t-152.5 -62q-69 0 -125 38t-80 110z" />
<glyph unicode="&#xb9;" horiz-adv-x="489" d="M139 1311v51l123 72v-613h-59v527z" />
<glyph unicode="&#xba;" d="M186 903q0 119 84.5 204t204.5 85q121 0 205 -85t84 -204t-84 -204t-205 -85q-120 0 -204.5 85t-84.5 204zM242 903q0 -102 65.5 -171.5t167.5 -69.5t168 69.5t66 171.5q0 103 -66 171.5t-168 68.5t-167.5 -68.5t-65.5 -171.5z" />
<glyph unicode="&#xbb;" horiz-adv-x="1130" d="M240 158v73l252 258l-252 256v74l350 -330zM590 158v73l252 258l-252 256v74l350 -330z" />
<glyph unicode="&#xbc;" horiz-adv-x="1982" d="M248 1274v51l190 111v-957h-53v873zM524 -39l570 1546h71l-569 -1546h-72zM1026 279l557 725v-674h148v-51h-148v-279h-55v279h-502zM1133 330h395v516z" />
<glyph unicode="&#xbd;" horiz-adv-x="2189" d="M248 1274v51l190 111v-957h-53v873zM524 -39l570 1546h71l-569 -1546h-72zM1116 676q0 121 70 199.5t194 78.5q116 0 189 -80.5t73 -203.5q0 -61 -23 -127t-53.5 -118.5t-88.5 -124.5t-97.5 -115.5t-111.5 -119.5q-13 -13 -19 -20h459v-47h-586q68 68 102.5 103.5t93 98 t89.5 100.5t71.5 92t61 93.5t35 83.5t14.5 82q0 70 -20.5 122.5t-53 80t-67 40.5t-68.5 13q-49 0 -87 -16t-61 -40t-37.5 -56t-20 -61t-5.5 -58q0 -92 58 -150l-39 -34q-72 72 -72 184z" />
<glyph unicode="&#xbe;" horiz-adv-x="2613" d="M350 514l39 41q82 -82 199 -82q123 0 200.5 85t77.5 210q0 127 -81 207t-197 80q-57 0 -113 -21l21 23l264 342h-357v51h451l-266 -344q85 0 161 -39.5t126.5 -118.5t50.5 -180q0 -79 -29 -145.5t-76.5 -109.5t-108 -67t-124.5 -24q-65 0 -128 24t-110 68zM942 -39 l569 1546h72l-569 -1546h-72zM1434 279l557 725v-674h147v-51h-147v-279h-56v279h-501zM1540 330h395v516z" />
<glyph unicode="&#xbf;" horiz-adv-x="839" d="M8 4q0 204 201 354q15 11 47.5 30t52.5 34t43 39.5t34 61.5t11 85v160h72v-199q0 -50 -13.5 -87.5t-43 -66.5t-57 -48t-75 -48.5t-77.5 -52.5q-119 -107 -119 -262q0 -144 91 -238t235 -94q112 0 194 61t113 163l71 -19q-40 -120 -144 -196t-234 -76q-168 0 -285 117 t-117 282zM373 1010q0 28 19.5 46.5t43.5 18.5q26 0 46 -18.5t20 -46.5q0 -27 -20.5 -46.5t-45.5 -19.5q-24 0 -43.5 19.5t-19.5 46.5z" />
<glyph unicode="&#xc0;" horiz-adv-x="1515" d="M125 0l635 1499l635 -1499h-80l-260 614h-590l-260 -614h-80zM494 684h530l-244 578l-20 65l-21 -65zM535 1911h75l185 -273h-68z" />
<glyph unicode="&#xc1;" horiz-adv-x="1515" d="M125 0l635 1499l635 -1499h-80l-260 614h-590l-260 -614h-80zM494 684h530l-244 578l-20 65l-21 -65zM725 1638l184 273h76l-192 -273h-68z" />
<glyph unicode="&#xc2;" horiz-adv-x="1515" d="M125 0l635 1499l635 -1499h-80l-260 614h-590l-260 -614h-80zM494 684h530l-244 578l-20 65l-21 -65zM514 1638l246 371l246 -371h-68l-178 250l-178 -250h-68z" />
<glyph unicode="&#xc3;" horiz-adv-x="1515" d="M125 0l635 1499l635 -1499h-80l-260 614h-590l-260 -614h-80zM453 1645q4 71 57 108t119 37q76 0 149 -66q32 -31 57.5 -42t57.5 -11q24 0 46.5 6.5t44.5 29t26 58.5l57 -6q-4 -71 -57 -108t-119 -37q-78 0 -150 65q-33 31 -57.5 42.5t-56.5 11.5q-24 0 -46.5 -6.5 t-44.5 -29.5t-26 -59zM494 684h530l-244 578l-20 65l-21 -65z" />
<glyph unicode="&#xc4;" horiz-adv-x="1515" d="M125 0l635 1499l635 -1499h-80l-260 614h-590l-260 -614h-80zM461 1704q0 27 20 46t45 19q24 0 44 -19t20 -46q0 -28 -20 -47t-44 -19q-26 0 -45.5 19t-19.5 47zM494 684h530l-244 578l-20 65l-21 -65zM938 1704q0 27 20 46t46 19q24 0 43.5 -19t19.5 -46 q0 -28 -19.5 -47t-43.5 -19q-26 0 -46 19t-20 47z" />
<glyph unicode="&#xc5;" horiz-adv-x="1515" d="M125 0l635 1499l635 -1499h-80l-260 614h-590l-260 -614h-80zM494 684h530l-244 578l-20 65l-21 -65zM623 1716q0 56 40.5 96.5t96.5 40.5t96.5 -40.5t40.5 -96.5t-40.5 -96.5t-96.5 -40.5t-96.5 40.5t-40.5 96.5zM680 1716q0 -35 22.5 -57.5t57.5 -22.5t57.5 22.5 t22.5 57.5t-22.5 57.5t-57.5 22.5t-57.5 -22.5t-22.5 -57.5z" />
<glyph unicode="&#xc6;" horiz-adv-x="1615" d="M125 0l606 1434h670v-68h-565v-610h485v-68h-485v-620h594v-68h-670v614h-295l-260 -614h-80zM494 684h266v580l2 61l-21 -57z" />
<glyph unicode="&#xc7;" horiz-adv-x="1372" d="M127 715q0 200 98 369t266.5 267.5t366.5 98.5q199 0 369 -98l-53 -60q-151 82 -316 82q-132 0 -253.5 -52.5t-209.5 -141.5t-140 -210.5t-52 -254.5q0 -177 88 -328t239 -239.5t328 -88.5q166 0 313 80l58 -55q-160 -94 -350 -100q0 -26 9.5 -44.5t19.5 -26t28.5 -18 t26.5 -16.5q73 -54 73 -160q0 -89 -54.5 -151t-152.5 -62q-69 0 -124.5 38t-79.5 110l69 16q12 -44 48.5 -71t86.5 -27q63 0 103.5 42t40.5 105q0 67 -51 115q-15 11 -42.5 28.5t-40.5 27t-24.5 30t-11.5 47.5v19q-187 13 -342 113.5t-244.5 263.5t-89.5 352z" />
<glyph unicode="&#xc8;" horiz-adv-x="1230" d="M186 0v1434h838v-68h-762v-610h682v-68h-682v-620h791v-68h-867zM369 1911h75l185 -273h-68z" />
<glyph unicode="&#xc9;" horiz-adv-x="1230" d="M186 0v1434h838v-68h-762v-610h682v-68h-682v-620h791v-68h-867zM561 1638l184 273h76l-192 -273h-68z" />
<glyph unicode="&#xca;" horiz-adv-x="1230" d="M186 0v1434h838v-68h-762v-610h682v-68h-682v-620h791v-68h-867zM369 1638l245 371l246 -371h-67l-179 250l-178 -250h-67z" />
<glyph unicode="&#xcb;" horiz-adv-x="1230" d="M186 0v1434h838v-68h-762v-610h682v-68h-682v-620h791v-68h-867zM301 1704q0 27 20 46t46 19q24 0 43.5 -19t19.5 -46q0 -28 -19.5 -47t-43.5 -19q-26 0 -46 19t-20 47zM778 1704q0 27 20 46t46 19q24 0 43.5 -19t19.5 -46q0 -28 -19.5 -47t-43.5 -19q-26 0 -46 19 t-20 47z" />
<glyph unicode="&#xcc;" horiz-adv-x="483" d="M12 1911h76l184 -273h-67zM203 0v1434h76v-1434h-76z" />
<glyph unicode="&#xcd;" horiz-adv-x="483" d="M203 0v1434h76v-1434h-76zM205 1638l184 273h76l-193 -273h-67z" />
<glyph unicode="&#xce;" horiz-adv-x="483" d="M-6 1638l246 371l245 -371h-67l-178 250l-179 -250h-67zM203 0v1434h76v-1434h-76z" />
<glyph unicode="&#xcf;" horiz-adv-x="483" d="M-61 1704q0 27 20 46t45 19q24 0 44 -19t20 -46q0 -28 -20 -47t-44 -19q-26 0 -45.5 19t-19.5 47zM203 0v1434h76v-1434h-76zM416 1704q0 27 20 46t45 19q24 0 44 -19t20 -46q0 -28 -20 -47t-44 -19q-26 0 -45.5 19t-19.5 47z" />
<glyph unicode="&#xd0;" horiz-adv-x="1323" d="M45 688v68h123v678h285q149 0 283 -51t234 -142.5t159 -227.5t59 -296q0 -101 -26.5 -199t-88.5 -193t-152.5 -166.5t-230 -115t-309.5 -43.5h-213v688h-123zM244 68h172q197 0 355 79t249.5 228t91.5 342t-91.5 342t-249.5 228t-355 79h-172v-610h418v-68h-418v-620z " />
<glyph unicode="&#xd1;" horiz-adv-x="1665" d="M205 0v1499l1143 -1325l38 -53l-6 65v1248h76v-1500l-1143 1326l-39 53l7 -66v-1247h-76zM530 1645q4 71 57.5 108t119.5 37q76 0 149 -66q32 -31 57.5 -42t57.5 -11q24 0 46.5 6.5t44 29t25.5 58.5l58 -6q-4 -71 -57 -108t-119 -37q-78 0 -150 65q-33 31 -57.5 42.5 t-56.5 11.5q-24 0 -46.5 -6.5t-44.5 -29.5t-26 -59z" />
<glyph unicode="&#xd2;" horiz-adv-x="1718" d="M127 715q0 200 98 369t266.5 267.5t366.5 98.5q200 0 369 -98.5t267.5 -267.5t98.5 -369q0 -198 -98.5 -366.5t-267.5 -266.5t-369 -98q-148 0 -283.5 58t-233.5 156t-156 233.5t-58 283.5zM203 715q0 -177 88 -328t239 -239.5t328 -88.5q133 0 255 52.5t210.5 140.5 t141.5 209.5t53 253.5t-53 254t-141.5 210.5t-210.5 141.5t-255 53q-132 0 -253.5 -52.5t-209.5 -141.5t-140 -210.5t-52 -254.5zM629 1911h76l184 -273h-68z" />
<glyph unicode="&#xd3;" horiz-adv-x="1720" d="M127 715q0 200 98 369t266.5 267.5t366.5 98.5q200 0 369 -98.5t267.5 -267.5t98.5 -369q0 -198 -98.5 -366.5t-267.5 -266.5t-369 -98q-148 0 -283.5 58t-233.5 156t-156 233.5t-58 283.5zM203 715q0 -177 88 -328t239 -239.5t328 -88.5q133 0 255 52.5t210.5 140.5 t141.5 209.5t53 253.5t-53 254t-141.5 210.5t-210.5 141.5t-255 53q-132 0 -253.5 -52.5t-209.5 -141.5t-140 -210.5t-52 -254.5zM819 1638l185 273h75l-192 -273h-68z" />
<glyph unicode="&#xd4;" horiz-adv-x="1718" d="M127 715q0 200 98 369t266.5 267.5t366.5 98.5q200 0 369 -98.5t267.5 -267.5t98.5 -369q0 -198 -98.5 -366.5t-267.5 -266.5t-369 -98q-148 0 -283.5 58t-233.5 156t-156 233.5t-58 283.5zM203 715q0 -177 88 -328t239 -239.5t328 -88.5q133 0 255 52.5t210.5 140.5 t141.5 209.5t53 253.5t-53 254t-141.5 210.5t-210.5 141.5t-255 53q-132 0 -253.5 -52.5t-209.5 -141.5t-140 -210.5t-52 -254.5zM604 1638l246 371l246 -371h-68l-178 250l-178 -250h-68z" />
<glyph unicode="&#xd5;" horiz-adv-x="1718" d="M127 715q0 200 98 369t266.5 267.5t366.5 98.5q200 0 369 -98.5t267.5 -267.5t98.5 -369q0 -198 -98.5 -366.5t-267.5 -266.5t-369 -98q-148 0 -283.5 58t-233.5 156t-156 233.5t-58 283.5zM203 715q0 -177 88 -328t239 -239.5t328 -88.5q133 0 255 52.5t210.5 140.5 t141.5 209.5t53 253.5t-53 254t-141.5 210.5t-210.5 141.5t-255 53q-132 0 -253.5 -52.5t-209.5 -141.5t-140 -210.5t-52 -254.5zM557 1645q4 71 57 108t119 37q77 0 150 -66q33 -31 57.5 -42t56.5 -11q24 0 46.5 6.5t44.5 29t26 58.5l57 -6q-4 -71 -57 -108t-119 -37 q-77 0 -149 65q-33 31 -58 42.5t-57 11.5q-24 0 -46.5 -6.5t-44.5 -29.5t-26 -59z" />
<glyph unicode="&#xd6;" horiz-adv-x="1718" d="M127 715q0 200 98 369t266.5 267.5t366.5 98.5q200 0 369 -98.5t267.5 -267.5t98.5 -369q0 -198 -98.5 -366.5t-267.5 -266.5t-369 -98q-148 0 -283.5 58t-233.5 156t-156 233.5t-58 283.5zM203 715q0 -177 88 -328t239 -239.5t328 -88.5q133 0 255 52.5t210.5 140.5 t141.5 209.5t53 253.5t-53 254t-141.5 210.5t-210.5 141.5t-255 53q-132 0 -253.5 -52.5t-209.5 -141.5t-140 -210.5t-52 -254.5zM563 1704q0 27 20 46t46 19q24 0 43.5 -19t19.5 -46q0 -28 -19.5 -47t-43.5 -19q-26 0 -46 19t-20 47zM1040 1704q0 27 20 46t46 19 q24 0 43.5 -19t19.5 -46q0 -28 -19.5 -47t-43.5 -19q-26 0 -46 19t-20 47z" />
<glyph unicode="&#xd7;" horiz-adv-x="1024" d="M227 49l236 236l-236 235l47 49l236 -237l238 237l49 -47l-238 -237l238 -238l-49 -47l-238 236l-236 -236z" />
<glyph unicode="&#xd8;" horiz-adv-x="1720" d="M127 715q0 200 98 369t266.5 267.5t366.5 98.5q252 0 451 -156l131 156l51 -41l-133 -156q111 -103 173 -242.5t62 -295.5q0 -198 -98.5 -366.5t-267.5 -266.5t-369 -98q-253 0 -446 151l-144 -170l-51 45l143 168q-109 102 -171 241.5t-62 295.5zM203 715 q0 -138 55 -262t152 -215l847 999q-177 137 -399 137q-132 0 -253.5 -52.5t-209.5 -141.5t-140 -210.5t-52 -254.5zM461 193q177 -134 397 -134q133 0 255 52.5t210.5 140.5t141.5 209.5t53 253.5q0 136 -55.5 260t-153.5 217z" />
<glyph unicode="&#xd9;" horiz-adv-x="1335" d="M201 463v971h75v-965q0 -197 109 -307.5t285 -110.5q175 0 285 111t110 307v965h76v-971q0 -227 -132 -353t-339 -126q-208 0 -338.5 125.5t-130.5 353.5zM422 1911h76l184 -273h-68z" />
<glyph unicode="&#xda;" horiz-adv-x="1335" d="M201 463v971h75v-965q0 -197 109 -307.5t285 -110.5q175 0 285 111t110 307v965h76v-971q0 -227 -132 -353t-339 -126q-208 0 -338.5 125.5t-130.5 353.5zM614 1638l185 273h75l-192 -273h-68z" />
<glyph unicode="&#xdb;" horiz-adv-x="1335" d="M201 463v971h75v-965q0 -197 109 -307.5t285 -110.5q175 0 285 111t110 307v965h76v-971q0 -227 -132 -353t-339 -126q-208 0 -338.5 125.5t-130.5 353.5zM420 1638l246 371l245 -371h-67l-178 250l-179 -250h-67z" />
<glyph unicode="&#xdc;" horiz-adv-x="1335" d="M201 463v971h75v-965q0 -197 109 -307.5t285 -110.5q175 0 285 111t110 307v965h76v-971q0 -227 -132 -353t-339 -126q-208 0 -338.5 125.5t-130.5 353.5zM373 1704q0 27 20 46t45 19q24 0 44 -19t20 -46q0 -28 -20 -47t-44 -19q-26 0 -45.5 19t-19.5 47zM850 1704 q0 27 20 46t45 19q24 0 44 -19t20 -46q0 -28 -20 -47t-44 -19q-26 0 -45.5 19t-19.5 47z" />
<glyph unicode="&#xdd;" horiz-adv-x="1306" d="M84 1434h76l467 -781l24 -55h2l23 55l465 781h76l-527 -895l-2 -539h-74v539zM614 1638l185 273h75l-192 -273h-68z" />
<glyph unicode="&#xde;" horiz-adv-x="1026" d="M205 0v1434h76v-338h219q51 0 106 -12.5t112 -41.5t102 -70.5t73.5 -105t28.5 -139.5q0 -177 -111 -281t-311 -104h-219v-342h-76zM281 410h208q81 0 144.5 20t102.5 52t64.5 74.5t35.5 84.5t10 86q0 122 -102.5 211.5t-251.5 89.5h-211v-618z" />
<glyph unicode="&#xdf;" horiz-adv-x="1173" d="M45 702v68h133v188q2 164 117.5 277t284.5 113q124 0 212.5 -88t88.5 -213q0 -82 -41.5 -150.5t-110.5 -105.5q124 -44 201.5 -149t77.5 -239q0 -173 -125 -296t-299 -123q-95 0 -166 32l31 64q66 -29 131 -29q144 0 248 104.5t104 247.5q0 140 -100 242t-240 107v63 q92 3 154.5 68t62.5 159q0 97 -67.5 168.5t-166.5 71.5q-139 0 -228.5 -92.5t-92.5 -231.5v-958h-76v702h-133z" />
<glyph unicode="&#xe0;" horiz-adv-x="1128" d="M100 383q0 108 53.5 200t145.5 145.5t201 53.5q118 0 204.5 -61t129.5 -164l10 211h65v-768h-75v123l6 92q-43 -104 -133 -168.5t-207 -64.5q-165 0 -282.5 118t-117.5 283zM176 383q0 -141 91.5 -237.5t232.5 -96.5q143 0 234 96t91 238q0 144 -90.5 238t-234.5 94 q-142 0 -233 -94.5t-91 -237.5zM283 1253h75l185 -272h-68z" />
<glyph unicode="&#xe1;" horiz-adv-x="1128" d="M100 383q0 108 53.5 200t145.5 145.5t201 53.5q118 0 204.5 -61t129.5 -164l10 211h65v-768h-75v123l6 92q-43 -104 -133 -168.5t-207 -64.5q-165 0 -282.5 118t-117.5 283zM176 383q0 -141 91.5 -237.5t232.5 -96.5q143 0 234 96t91 238q0 144 -90.5 238t-234.5 94 q-142 0 -233 -94.5t-91 -237.5zM473 981l184 272h76l-192 -272h-68z" />
<glyph unicode="&#xe2;" horiz-adv-x="1128" d="M100 383q0 108 53.5 200t145.5 145.5t201 53.5q118 0 204.5 -61t129.5 -164l10 211h65v-768h-75v123l6 92q-43 -104 -133 -168.5t-207 -64.5q-165 0 -282.5 118t-117.5 283zM176 383q0 -141 91.5 -237.5t232.5 -96.5q143 0 234 96t91 238q0 144 -90.5 238t-234.5 94 q-142 0 -233 -94.5t-91 -237.5zM289 981l246 371l245 -371h-67l-178 250l-179 -250h-67z" />
<glyph unicode="&#xe3;" horiz-adv-x="1128" d="M100 383q0 108 53.5 200t145.5 145.5t201 53.5q118 0 204.5 -61t129.5 -164l10 211h65v-768h-75v123l6 92q-43 -104 -133 -168.5t-207 -64.5q-165 0 -282.5 118t-117.5 283zM176 383q0 -141 91.5 -237.5t232.5 -96.5q143 0 234 96t91 238q0 144 -90.5 238t-234.5 94 q-142 0 -233 -94.5t-91 -237.5zM254 967q4 73 44.5 110t102.5 37q32 0 57.5 -15t63.5 -50q36 -34 49.5 -43t34.5 -9q78 0 88 97l58 -7q-4 -73 -45 -110t-103 -37q-34 0 -59.5 15t-59.5 49q-36 34 -50.5 43.5t-35.5 9.5q-78 0 -88 -96z" />
<glyph unicode="&#xe4;" horiz-adv-x="1128" d="M100 383q0 108 53.5 200t145.5 145.5t201 53.5q118 0 204.5 -61t129.5 -164l10 211h65v-768h-75v123l6 92q-43 -104 -133 -168.5t-207 -64.5q-165 0 -282.5 118t-117.5 283zM176 383q0 -141 91.5 -237.5t232.5 -96.5q143 0 234 96t91 238q0 144 -90.5 238t-234.5 94 q-142 0 -233 -94.5t-91 -237.5zM303 1067q0 27 20.5 46.5t45.5 19.5q24 0 43.5 -19.5t19.5 -46.5q0 -28 -19.5 -47t-43.5 -19q-26 0 -46 19t-20 47zM641 1067q0 27 20.5 46.5t45.5 19.5q24 0 43.5 -19.5t19.5 -46.5q0 -28 -19.5 -47t-43.5 -19q-26 0 -46 19t-20 47z" />
<glyph unicode="&#xe5;" horiz-adv-x="1128" d="M100 383q0 108 53.5 200t145.5 145.5t201 53.5q118 0 204.5 -61t129.5 -164l10 211h65v-768h-75v123l6 92q-43 -104 -133 -168.5t-207 -64.5q-165 0 -282.5 118t-117.5 283zM176 383q0 -141 91.5 -237.5t232.5 -96.5q143 0 234 96t91 238q0 144 -90.5 238t-234.5 94 q-142 0 -233 -94.5t-91 -237.5zM375 1108q0 56 40.5 96.5t96.5 40.5t96.5 -40.5t40.5 -96.5t-40.5 -96.5t-96.5 -40.5t-96.5 40.5t-40.5 96.5zM432 1108q0 -35 22.5 -57.5t57.5 -22.5t57.5 22.5t22.5 57.5t-22.5 57.5t-57.5 22.5t-57.5 -22.5t-22.5 -57.5z" />
<glyph unicode="&#xe6;" horiz-adv-x="1288" d="M100 201q0 70 46 115t112.5 62t151.5 17h252v94q0 62 -8.5 100.5t-34 69.5t-74.5 44.5t-127 13.5q-50 0 -110.5 -18t-90.5 -40l-51 50q38 32 112.5 53.5t141.5 21.5q157 0 231 -53q87 49 191 49q130 0 222 -75.5t132 -200.5l-459 -178v-215q0 -33 8 -52q47 -12 97 -12 q131 0 221 84l51 -41q-113 -110 -272 -110q-126 0 -221 67q-72 -63 -201 -63q-154 0 -237 49t-83 168zM176 203q0 -45 23.5 -77t63.5 -47t79.5 -21.5t83.5 -6.5q64 0 113.5 12.5t86 50.5t36.5 99v115h-242q-55 0 -94.5 -4.5t-76 -17t-55 -38.5t-18.5 -65zM698 682 q39 -61 39 -184v-99l371 146q-84 168 -266 168q-80 0 -144 -31z" />
<glyph unicode="&#xe7;" horiz-adv-x="788" d="M57 383q0 165 117.5 282t282.5 117q153 0 266 -102l-41 -51q-92 86 -225 86q-142 0 -233 -94.5t-91 -237.5t91 -237.5t233 -94.5q133 0 225 86l41 -51q-107 -96 -252 -102q0 -26 9.5 -44.5t19.5 -26t28.5 -18t26.5 -16.5q74 -55 74 -160q0 -89 -54.5 -151t-152.5 -62 q-69 0 -125 38t-80 110l70 16q12 -44 48.5 -71t86.5 -27q63 0 103 42t40 105q0 67 -51 115q-15 11 -42.5 28.5t-40.5 27t-24.5 30t-11.5 47.5v23q-145 22 -241.5 133t-96.5 260z" />
<glyph unicode="&#xe8;" horiz-adv-x="923" d="M80 381q0 165 117 282t282 117q131 0 223 -75.5t132 -200.5l-656 -254q36 -93 116 -148t185 -55q131 0 221 84l52 -41q-113 -110 -273 -110q-165 0 -282 118t-117 283zM156 381q0 -24 4 -64l585 228q-84 168 -266 168q-142 0 -232.5 -94.5t-90.5 -237.5zM215 1253h76 l184 -272h-67z" />
<glyph unicode="&#xe9;" horiz-adv-x="923" d="M80 381q0 165 117 282t282 117q131 0 223 -75.5t132 -200.5l-656 -254q36 -93 116 -148t185 -55q131 0 221 84l52 -41q-113 -110 -273 -110q-165 0 -282 118t-117 283zM156 381q0 -24 4 -64l585 228q-84 168 -266 168q-142 0 -232.5 -94.5t-90.5 -237.5zM473 981l184 272 h76l-192 -272h-68z" />
<glyph unicode="&#xea;" horiz-adv-x="923" d="M80 381q0 165 117 282t282 117q131 0 223 -75.5t132 -200.5l-656 -254q36 -93 116 -148t185 -55q131 0 221 84l52 -41q-113 -110 -273 -110q-165 0 -282 118t-117 283zM156 381q0 -24 4 -64l585 228q-84 168 -266 168q-142 0 -232.5 -94.5t-90.5 -237.5zM229 981l246 371 l246 -371h-68l-178 250l-178 -250h-68z" />
<glyph unicode="&#xeb;" horiz-adv-x="923" d="M80 381q0 165 117 282t282 117q131 0 223 -75.5t132 -200.5l-656 -254q36 -93 116 -148t185 -55q131 0 221 84l52 -41q-113 -110 -273 -110q-165 0 -282 118t-117 283zM156 381q0 -24 4 -64l585 228q-84 168 -266 168q-142 0 -232.5 -94.5t-90.5 -237.5zM254 1067 q0 27 20 46.5t45 19.5q24 0 44 -19.5t20 -46.5q0 -28 -20 -47t-44 -19q-26 0 -45.5 19t-19.5 47zM592 1067q0 27 20 46.5t45 19.5q24 0 44 -19.5t20 -46.5q0 -28 -20 -47t-44 -19q-26 0 -45.5 19t-19.5 47z" />
<glyph unicode="&#xec;" horiz-adv-x="356" d="M-61 1253h75l185 -272h-68zM125 0v768h74v-768h-74z" />
<glyph unicode="&#xed;" horiz-adv-x="397" d="M125 0v768h74v-768h-74zM133 981l184 272h76l-192 -272h-68z" />
<glyph unicode="&#xee;" horiz-adv-x="489" d="M-8 981l246 371l245 -371h-67l-178 250l-179 -250h-67zM199 0v768h73v-768h-73z" />
<glyph unicode="&#xef;" horiz-adv-x="555" d="M47 1067q0 27 20.5 46.5t45.5 19.5q24 0 43.5 -19.5t19.5 -46.5q0 -28 -19.5 -47t-43.5 -19q-26 0 -46 19t-20 47zM250 0v768h74v-768h-74zM385 1067q0 27 20.5 46.5t45.5 19.5q24 0 43.5 -19.5t19.5 -46.5q0 -28 -19.5 -47t-43.5 -19q-26 0 -46 19t-20 47z" />
<glyph unicode="&#xf0;" horiz-adv-x="1009" d="M74 383q0 165 117 282t282 117q167 0 281 -114q-83 296 -275 553l-141 -142l-47 47l145 148v2q-91 104 -186 186l49 49q75 -60 190 -186l142 143l49 -47l-145 -145q130 -163 232.5 -413.5t106.5 -479.5q0 -165 -116.5 -283t-284.5 -118q-165 0 -282 118t-117 283z M150 383q0 -141 91 -237.5t232 -96.5q143 0 234.5 96t91.5 238q0 144 -91 238t-235 94q-142 0 -232.5 -94.5t-90.5 -237.5z" />
<glyph unicode="&#xf1;" horiz-adv-x="1071" d="M205 0v766h67l9 -205q44 100 129.5 159t199.5 62q120 0 192 -63t75 -166v-553h-76v553q-3 69 -50.5 113.5t-138.5 48.5q-135 0 -233 -82.5t-98 -204.5v-428h-76zM324 967q4 73 44.5 110t102.5 37q32 0 57.5 -15t63.5 -50q36 -34 49.5 -43t34.5 -9q78 0 88 97l57 -7 q-4 -73 -44.5 -110t-102.5 -37q-34 0 -59.5 15t-59.5 49q-36 34 -50.5 43.5t-35.5 9.5q-78 0 -88 -96z" />
<glyph unicode="&#xf2;" d="M74 383q0 165 117 282t282 117q168 0 284.5 -117t116.5 -282t-116.5 -283t-284.5 -118q-165 0 -282 118t-117 283zM150 383q0 -141 91 -237.5t232 -96.5q143 0 234.5 96t91.5 238q0 144 -91 238t-235 94q-142 0 -232.5 -94.5t-90.5 -237.5zM215 1253h76l184 -272h-67z " />
<glyph unicode="&#xf3;" d="M74 383q0 165 117 282t282 117q168 0 284.5 -117t116.5 -282t-116.5 -283t-284.5 -118q-165 0 -282 118t-117 283zM150 383q0 -141 91 -237.5t232 -96.5q143 0 234.5 96t91.5 238q0 144 -91 238t-235 94q-142 0 -232.5 -94.5t-90.5 -237.5zM473 981l184 272h76l-192 -272 h-68z" />
<glyph unicode="&#xf4;" d="M74 383q0 165 117 282t282 117q168 0 284.5 -117t116.5 -282t-116.5 -283t-284.5 -118q-165 0 -282 118t-117 283zM150 383q0 -141 91 -237.5t232 -96.5q143 0 234.5 96t91.5 238q0 144 -91 238t-235 94q-142 0 -232.5 -94.5t-90.5 -237.5zM229 981l246 371l246 -371h-68 l-178 250l-178 -250h-68z" />
<glyph unicode="&#xf5;" d="M74 383q0 165 117 282t282 117q168 0 284.5 -117t116.5 -282t-116.5 -283t-284.5 -118q-165 0 -282 118t-117 283zM150 383q0 -141 91 -237.5t232 -96.5q143 0 234.5 96t91.5 238q0 144 -91 238t-235 94q-142 0 -232.5 -94.5t-90.5 -237.5zM219 967q4 73 45 110t103 37 q32 0 56.5 -15t63.5 -50q36 -34 49.5 -43t34.5 -9q78 0 88 97l58 -7q-4 -73 -45 -110t-103 -37q-34 0 -58.5 14.5t-59.5 49.5q-36 34 -50.5 43.5t-35.5 9.5q-79 0 -89 -96z" />
<glyph unicode="&#xf6;" d="M74 383q0 165 117 282t282 117q168 0 284.5 -117t116.5 -282t-116.5 -283t-284.5 -118q-165 0 -282 118t-117 283zM150 383q0 -141 91 -237.5t232 -96.5q143 0 234.5 96t91.5 238q0 144 -91 238t-235 94q-142 0 -232.5 -94.5t-90.5 -237.5zM254 1067q0 27 20 46.5 t45 19.5q24 0 44 -19.5t20 -46.5q0 -28 -20 -47t-44 -19q-26 0 -45.5 19t-19.5 47zM592 1067q0 27 20 46.5t45 19.5q24 0 44 -19.5t20 -46.5q0 -28 -20 -47t-44 -19q-26 0 -45.5 19t-19.5 47z" />
<glyph unicode="&#xf7;" horiz-adv-x="1026" d="M139 440v68h738v-68h-738zM449 209q0 27 20 46t45 19q24 0 44 -19t20 -46q0 -28 -20 -47t-44 -19q-26 0 -45.5 19t-19.5 47zM449 723q0 27 20 46t45 19q24 0 44 -19t20 -46q0 -28 -20 -47t-44 -19q-26 0 -45.5 19t-19.5 47z" />
<glyph unicode="&#xf8;" d="M74 383q0 165 117 282t282 117q127 0 225 -67l80 94l51 -41l-79 -94q124 -118 124 -291q0 -165 -116.5 -283t-284.5 -118q-137 0 -242 79l-81 -96l-52 45l84 99q-108 114 -108 274zM150 383q0 -134 75 -221l428 502q-76 51 -180 51q-142 0 -232.5 -94.5t-90.5 -237.5z M274 113q83 -64 199 -64q143 0 234.5 96t91.5 238q0 145 -92 240z" />
<glyph unicode="&#xf9;" horiz-adv-x="1083" d="M205 229v539h76v-539q3 -69 50 -113t138 -48q135 0 233.5 82t98.5 204v428h76v-782h-76v123l6 92q-43 -98 -132 -155t-204 -60q-120 0 -191.5 63t-74.5 166zM283 1253h75l185 -272h-68z" />
<glyph unicode="&#xfa;" horiz-adv-x="1083" d="M205 229v539h76v-539q3 -69 50 -113t138 -48q135 0 233.5 82t98.5 204v428h76v-782h-76v123l6 92q-43 -98 -132 -155t-204 -60q-120 0 -191.5 63t-74.5 166zM473 981l184 272h76l-192 -272h-68z" />
<glyph unicode="&#xfb;" horiz-adv-x="1083" d="M205 229v539h76v-539q3 -69 50 -113t138 -48q135 0 233.5 82t98.5 204v428h76v-782h-76v123l6 92q-43 -98 -132 -155t-204 -60q-120 0 -191.5 63t-74.5 166zM299 981l246 371l246 -371h-68l-178 250l-178 -250h-68z" />
<glyph unicode="&#xfc;" horiz-adv-x="1083" d="M205 229v539h76v-539q3 -69 50 -113t138 -48q135 0 233.5 82t98.5 204v428h76v-782h-76v123l6 92q-43 -98 -132 -155t-204 -60q-120 0 -191.5 63t-74.5 166zM299 1065q0 27 20 46t46 19q24 0 43.5 -19t19.5 -46q0 -28 -19.5 -47t-43.5 -19q-26 0 -46 19t-20 47zM637 1065 q0 27 20 46t45 19q24 0 44 -19t20 -46q0 -28 -20 -47t-44 -19q-26 0 -45.5 19t-19.5 47z" />
<glyph unicode="&#xfd;" horiz-adv-x="999" d="M104 768h80l332 -662l332 662h80l-645 -1280h-78l270 543zM494 981l184 272h76l-193 -272h-67z" />
<glyph unicode="&#xfe;" horiz-adv-x="1140" d="M205 -514v2050h76v-979q43 103 129 164t204 61q109 0 201 -53.5t145.5 -145.5t53.5 -200q0 -165 -117.5 -283t-282.5 -118q-113 0 -200 60t-133 159v-715h-76zM281 369q6 -136 100.5 -228t232.5 -92q141 0 232.5 96.5t91.5 237.5q0 143 -91 237.5t-233 94.5 q-139 0 -233 -90.5t-100 -227.5v-28z" />
<glyph unicode="&#xff;" horiz-adv-x="999" d="M104 768h80l332 -662l332 662h80l-645 -1280h-78l270 543zM289 1065q0 27 20 46t45 19q24 0 44 -19t20 -46q0 -28 -20 -47t-44 -19q-26 0 -45.5 19t-19.5 47zM627 1065q0 27 20 46t45 19q24 0 44 -19t20 -46q0 -28 -20 -47t-44 -19q-26 0 -45.5 19t-19.5 47z" />
<glyph unicode="&#x152;" horiz-adv-x="2252" d="M127 715q0 200 98 369t266.5 267.5t366.5 98.5q199 0 369 -98v82h837v-68h-761v-610h682v-68h-682v-620h790v-68h-866v82q-175 -98 -369 -98q-148 0 -283.5 58t-233.5 156t-156 233.5t-58 283.5zM203 715q0 -177 88 -328t239 -239.5t328 -88.5q203 0 369 113v1085 q-168 117 -369 117q-132 0 -253.5 -52.5t-209.5 -141.5t-140 -210.5t-52 -254.5z" />
<glyph unicode="&#x153;" horiz-adv-x="1464" d="M74 383q0 165 117 282t282 117q143 0 256 -92q111 90 252 90q130 0 222 -75.5t132 -200.5l-655 -254q36 -93 116 -148t185 -55q131 0 221 84l51 -41q-113 -110 -272 -110q-143 0 -254 90q-109 -88 -254 -88q-165 0 -282 118t-117 283zM150 383q0 -141 91 -237.5 t232 -96.5q121 0 207 70q-98 112 -98 262q0 151 100 262q-88 72 -209 72q-142 0 -232.5 -94.5t-90.5 -237.5zM657 381q0 -14 5 -64l585 228q-84 168 -266 168q-142 0 -233 -94.5t-91 -237.5z" />
<glyph unicode="&#x178;" horiz-adv-x="1306" d="M84 1434h76l467 -781l24 -55h2l23 55l465 781h76l-527 -895l-2 -539h-74v539zM420 1704q0 27 20 46t45 19q24 0 44 -19t20 -46q0 -28 -20 -47t-44 -19q-26 0 -45.5 19t-19.5 47zM758 1704q0 27 20 46t45 19q24 0 44 -19t20 -46q0 -28 -20 -47t-44 -19q-26 0 -45.5 19 t-19.5 47z" />
<glyph unicode="&#x2c6;" horiz-adv-x="753" d="M137 981l246 371l246 -371h-68l-178 250l-178 -250h-68z" />
<glyph unicode="&#x2dc;" horiz-adv-x="790" d="M139 965q4 73 45 110t103 37q32 0 57.5 -15t63.5 -50q36 -34 49.5 -43t34.5 -9q78 0 88 97l57 -7q-4 -73 -45 -110t-103 -37q-34 0 -59 14.5t-59 48.5q-36 35 -50.5 44.5t-35.5 9.5q-78 0 -88 -97z" />
<glyph unicode="&#x2000;" horiz-adv-x="1004" />
<glyph unicode="&#x2001;" horiz-adv-x="2009" />
<glyph unicode="&#x2002;" horiz-adv-x="1004" />
<glyph unicode="&#x2003;" horiz-adv-x="2009" />
<glyph unicode="&#x2004;" horiz-adv-x="669" />
<glyph unicode="&#x2005;" horiz-adv-x="502" />
<glyph unicode="&#x2006;" horiz-adv-x="334" />
<glyph unicode="&#x2007;" horiz-adv-x="334" />
<glyph unicode="&#x2008;" horiz-adv-x="251" />
<glyph unicode="&#x2009;" horiz-adv-x="401" />
<glyph unicode="&#x200a;" horiz-adv-x="111" />
<glyph unicode="&#x2010;" horiz-adv-x="614" d="M109 356v68h376v-68h-376z" />
<glyph unicode="&#x2011;" horiz-adv-x="614" d="M109 356v68h376v-68h-376z" />
<glyph unicode="&#x2012;" horiz-adv-x="614" d="M109 356v68h376v-68h-376z" />
<glyph unicode="&#x2013;" horiz-adv-x="1042" d="M205 356v68h616v-68h-616z" />
<glyph unicode="&#x2014;" horiz-adv-x="1433" d="M203 356v68h1028v-68h-1028z" />
<glyph unicode="&#x2018;" horiz-adv-x="335" d="M63 1456l66 -14q-13 -69 5.5 -130.5t62.5 -103.5l-43 -49q-58 58 -83 136t-8 161z" />
<glyph unicode="&#x2019;" horiz-adv-x="335" d="M113 1208q44 42 62 103.5t5 130.5l66 14q17 -83 -7.5 -161t-82.5 -136z" />
<glyph unicode="&#x201a;" horiz-adv-x="299" d="M41 -74q44 42 62.5 103.5t5.5 130.5l65 14q17 -83 -7.5 -161t-82.5 -136z" />
<glyph unicode="&#x201c;" horiz-adv-x="509" d="M63 1456l66 -14q-13 -69 5.5 -130.5t62.5 -103.5l-43 -49q-58 58 -83 136t-8 161zM276 1456l66 -14q-13 -69 5.5 -130.5t62.5 -103.5l-43 -49q-58 58 -83 136t-8 161z" />
<glyph unicode="&#x201d;" horiz-adv-x="507" d="M41 1208q44 42 62.5 103.5t5.5 130.5l65 14q17 -83 -7.5 -161t-82.5 -136zM254 1208q44 42 62.5 103.5t5.5 130.5l65 14q17 -83 -7.5 -161t-82.5 -136z" />
<glyph unicode="&#x201e;" horiz-adv-x="698" d="M41 -74q44 42 62.5 103.5t5.5 130.5l65 14q17 -83 -7.5 -161t-82.5 -136zM254 -74q44 42 62.5 103.5t5.5 130.5l65 14q17 -83 -7.5 -161t-82.5 -136z" />
<glyph unicode="&#x2022;" horiz-adv-x="980" d="M293 614q0 84 56.5 141.5t139.5 57.5t141 -58t58 -141t-57.5 -139.5t-141.5 -56.5q-83 0 -139.5 56.5t-56.5 139.5z" />
<glyph unicode="&#x2026;" horiz-adv-x="1001" d="M109 63q0 27 20 46.5t45 19.5q24 0 44 -19.5t20 -46.5q0 -28 -19.5 -46.5t-44.5 -18.5q-26 0 -45.5 18.5t-19.5 46.5zM442 63q0 27 20.5 46.5t45.5 19.5q24 0 43.5 -19.5t19.5 -46.5q0 -28 -19.5 -46.5t-43.5 -18.5q-26 0 -46 18.5t-20 46.5zM776 63q0 27 20.5 46.5 t45.5 19.5q24 0 43.5 -19.5t19.5 -46.5q0 -28 -19.5 -46.5t-43.5 -18.5q-26 0 -46 18.5t-20 46.5z" />
<glyph unicode="&#x202f;" horiz-adv-x="401" />
<glyph unicode="&#x2039;" horiz-adv-x="802" d="M240 489l350 330v-74l-252 -256l252 -258v-73z" />
<glyph unicode="&#x203a;" horiz-adv-x="802" d="M240 158v73l252 258l-252 256v74l350 -330z" />
<glyph unicode="&#x205f;" horiz-adv-x="502" />
<glyph unicode="&#x20ac;" horiz-adv-x="1228" d="M88 522v66h156q-2 27 -2 82q0 46 2 69h-156v66h162q36 250 187 397.5t358 145.5q146 0 268 -80l-43 -56q-101 68 -225 68q-84 1 -155.5 -27.5t-121.5 -75t-89.5 -109.5t-62.5 -128t-36 -135h655v-66h-663q-5 -63 -5 -71q0 -53 2 -80h666v-66h-655q37 -205 164 -337.5 t292 -133.5q153 0 275 113l47 -55q-143 -125 -322 -125q-189 2 -342 149.5t-192 388.5h-164z" />
<glyph unicode="&#x2122;" horiz-adv-x="1765" d="M207 1421v52h518v-52h-231v-602h-60v602h-227zM817 819v688l344 -444l340 444v-688h-59v522l-281 -364l-284 369v-527h-60z" />
<glyph unicode="&#xe000;" horiz-adv-x="768" d="M0 0v768h768v-768h-768z" />
<glyph unicode="&#xfb01;" horiz-adv-x="817" d="M45 700v68h133v391q2 163 116 276t281 113v-65q-139 0 -228.5 -92.5t-92.5 -231.5v-391h399v-768h-75v700h-324l2 -700h-78v700h-133zM559 1092q0 27 20 46t46 19q24 0 43.5 -19t19.5 -46q0 -28 -19.5 -47t-43.5 -19q-26 0 -46 19t-20 47z" />
<glyph unicode="&#xfb02;" horiz-adv-x="894" d="M45 700v68h133v391q2 163 116 276t281 113h226v-1548h-74v1483h-152q-139 0 -228.5 -92.5t-92.5 -231.5v-391h238v-68h-238l2 -700h-78v700h-133z" />
<glyph unicode="&#xfb03;" horiz-adv-x="1181" d="M47 700v68h133v391q2 163 116.5 276t281.5 113v-65q-139 0 -229 -92.5t-93 -231.5v-391h371v391q2 163 116 276t281 113v-65q-139 0 -229 -92.5t-93 -231.5v-391h400v-768h-76v700h-324v-700h-75v700h-371v-700h-76v700h-133zM1008 1092q0 27 20 46t45 19q24 0 44 -19 t20 -46q0 -28 -20 -47t-44 -19q-26 0 -45.5 19t-19.5 47z" />
<glyph unicode="&#xfb04;" horiz-adv-x="1331" d="M47 700v68h133v391q2 163 116.5 276t281.5 113v-65q-139 0 -229 -92.5t-93 -231.5v-391h371v391q2 163 116 276t281 113h225v-1548h-73v1483h-152q-139 0 -229 -92.5t-93 -231.5v-391h238v-68h-238l3 -700h-78v700h-371v-700h-76v700h-133z" />
</font>
</defs>
</svg>
