<?xml version="1.0" encoding="utf-8"?>
<!-- Generator: Adobe Illustrator 16.0.0, SVG Export Plug-In . SVG Version: 6.00 Build 0)  -->
<!DOCTYPE svg PUBLIC "-//W3C//DTD SVG 1.1//EN" "http://www.w3.org/Graphics/SVG/1.1/DTD/svg11.dtd">
<svg version="1.1" id="Layer_1" xmlns="http://www.w3.org/2000/svg" xmlns:xlink="http://www.w3.org/1999/xlink" x="0px" y="0px"
	 width="369px" height="134px" viewBox="149.5 200.5 369 134" enable-background="new 149.5 200.5 369 134" xml:space="preserve">
<title>Yellow</title>
<g>
	<g id="g4808">
		<path id="path2830" fill="#D03248" stroke="#000000" d="M441.182,204.486c-29.261,0.196-57.458,9.342-86.178,12.999
			c-11.986,1.526-24.341,1.901-36.348,0.481c-15.964-1.887-31.42-6.901-47.374-9.147c-14.257-2.008-28.693-4.104-43.04-4.188
			c-25.072-0.147-49.321,7.702-73.9,11.939c0,7.19-1.46,16.419,2.214,21.472c3.791,5.212,10.185,9.979,11.843,17.043
			c3.934,16.75,9.518,33.172,16.658,48.914c3.47,7.649,10.019,12.982,17.332,16.656c17.609,8.848,38.453,10.148,57.772,7.367
			c27.512-3.963,42.438-24.605,53.825-48.192c4.262-9.588,4.737-20.653,10.351-29.415c3.334-5.205,11.076-3.015,16.609-3.033
			c5.533-0.02,10.223,9.184,11.939,15.309c6.077,21.68,16.21,44.681,36.349,56.04c30.073,16.963,77.449,13.79,96.961-16.802
			c7.636-11.973,9.745-26.5,13.576-40.057c2.333-8.252,4.416-18.09,12.711-22.627c3.347-1.831,0.998-9.137,1.492-13.384
			c0.538-4.627,1.576-8.72-5.007-9.629c-11.483-1.585-22.622-6.408-34.375-8.04C463.456,206.647,452.544,204.411,441.182,204.486z
			 M247.74,212.189c8.306-0.053,16.577,0.555,24.649,2.263c48.101,10.174,49.073,29.991,29.271,70.964
			c-16.136,33.386-49.56,41.751-83.24,33.748c-15.525-3.688-26.142-14.525-31.149-29.367c-5.285-15.664-9.282-32.307-8.377-48.77
			c1.212-22.046,26.148-25.145,44.003-27.153C231.091,212.953,239.435,212.242,247.74,212.189z M423.368,212.189
			c8.306,0.053,16.648,0.764,24.842,1.685c17.855,2.008,42.792,5.106,44.003,27.153c0.905,16.463-3.092,33.105-8.376,48.77
			c-5.008,14.842-15.624,25.679-31.149,29.367c-33.68,8.003-67.104-0.362-83.24-33.748c-19.802-40.973-18.829-60.79,29.271-70.964
			C406.792,212.745,415.062,212.137,423.368,212.189z"/>
		<path id="path2832" opacity="0.85" fill="#7F7F7F" stroke="#000000" enable-background="new    " d="M222.892,213.891
			c16.386-1.843,33.343-2.84,49.489,0.575c48.101,10.174,49.07,29.994,29.269,70.966c-16.135,33.387-49.542,41.754-83.223,33.752
			c-15.525-3.689-26.148-14.565-31.155-29.406c-5.284-15.664-9.304-32.297-8.399-48.761
			C180.084,218.97,205.037,215.899,222.892,213.891L222.892,213.891z"/>
		<path id="path2832-1" opacity="0.85" fill="#7F7F7F" stroke="#000000" enable-background="new    " d="M448.2,213.891
			c-16.386-1.843-33.343-2.84-49.488,0.575c-48.101,10.174-49.071,29.994-29.27,70.966c16.136,33.387,49.543,41.754,83.223,33.752
			c15.526-3.689,26.148-14.565,31.155-29.406c5.285-15.664,9.305-32.297,8.399-48.761C491.008,218.97,466.056,215.899,448.2,213.891
			L448.2,213.891z"/>
	</g>
	<title>Layer 1</title>
</g>
</svg>
